<svg id="visual" viewBox="0 0 675 900" width="675" height="900" xmlns="http://www.w3.org/2000/svg" xmlns:xlink="http://www.w3.org/1999/xlink" version="1.1"><g stroke-width="1" stroke-linejoin="bevel"><path d="M302.8 454L289.8 504L321.8 488Z" fill="#2a2726" stroke="#2a2726"></path><path d="M302.8 454L263.5 448L289.8 504Z" fill="#211d1f" stroke="#211d1f"></path><path d="M263.5 448L235.5 461L289.8 504Z" fill="#262222" stroke="#262222"></path><path d="M235.5 461L252.5 547L289.8 504Z" fill="#241f20" stroke="#241f20"></path><path d="M404.2 588L402.2 508L321.8 488Z" fill="#1e1b1d" stroke="#1e1b1d"></path><path d="M402.2 508L385.2 470L321.8 488Z" fill="#17171a" stroke="#17171a"></path><path d="M321.8 488L385.2 470L302.8 454Z" fill="#1e1b1d" stroke="#1e1b1d"></path><path d="M385.2 470L370.2 407L302.8 454Z" fill="#2c2a28" stroke="#2c2a28"></path><path d="M302.8 454L276.8 371L263.5 448Z" fill="#262222" stroke="#262222"></path><path d="M279.8 599L321.8 488L289.8 504Z" fill="#1e1b1d" stroke="#1e1b1d"></path><path d="M385.2 470L396.5 422L370.2 407Z" fill="#282524" stroke="#282524"></path><path d="M370.2 407L276.8 371L302.8 454Z" fill="#282524" stroke="#282524"></path><path d="M263.5 448L187.1 396L235.5 461Z" fill="#131418" stroke="#131418"></path><path d="M154.7 487L192.1 516L235.5 461Z" fill="#262222" stroke="#262222"></path><path d="M235.5 461L192.1 516L252.5 547Z" fill="#262222" stroke="#262222"></path><path d="M402.2 508L411.5 477L385.2 470Z" fill="#1b191c" stroke="#1b191c"></path><path d="M411.5 477L396.5 422L385.2 470Z" fill="#131418" stroke="#131418"></path><path d="M263.5 627L279.8 599L252.5 547Z" fill="#17171a" stroke="#17171a"></path><path d="M252.5 547L279.8 599L289.8 504Z" fill="#2c2a28" stroke="#2c2a28"></path><path d="M294.8 268L263.5 355L276.8 371Z" fill="#2a2726" stroke="#2a2726"></path><path d="M276.8 371L187.1 396L263.5 448Z" fill="#17171a" stroke="#17171a"></path><path d="M263.5 355L187.1 396L276.8 371Z" fill="#211d1f" stroke="#211d1f"></path><path d="M187.1 396L154.7 487L235.5 461Z" fill="#262222" stroke="#262222"></path><path d="M192.1 516L168.1 544L252.5 547Z" fill="#1b191c" stroke="#1b191c"></path><path d="M154.7 487L168.1 544L192.1 516Z" fill="#262222" stroke="#262222"></path><path d="M263.5 627L283.8 625L279.8 599Z" fill="#1e1b1d" stroke="#1e1b1d"></path><path d="M279.8 599L404.2 588L321.8 488Z" fill="#1e1b1d" stroke="#1e1b1d"></path><path d="M149.1 582L263.5 627L252.5 547Z" fill="#282524" stroke="#282524"></path><path d="M283.8 625L404.2 588L279.8 599Z" fill="#262222" stroke="#262222"></path><path d="M402.2 508L447.5 520L411.5 477Z" fill="#0f1216" stroke="#0f1216"></path><path d="M404.2 588L447.5 520L402.2 508Z" fill="#2a2726" stroke="#2a2726"></path><path d="M460.9 376L446.5 361L396.5 422Z" fill="#1e1b1d" stroke="#1e1b1d"></path><path d="M396.5 422L398.2 359L370.2 407Z" fill="#1b191c" stroke="#1b191c"></path><path d="M370.2 407L398.2 359L276.8 371Z" fill="#0f1216" stroke="#0f1216"></path><path d="M446.5 361L398.2 359L396.5 422Z" fill="#17171a" stroke="#17171a"></path><path d="M212.1 336L160.7 396L187.1 396Z" fill="#0f1216" stroke="#0f1216"></path><path d="M187.1 396L160.7 396L154.7 487Z" fill="#241f20" stroke="#241f20"></path><path d="M220.1 321L212.1 336L263.5 355Z" fill="#2c2a28" stroke="#2c2a28"></path><path d="M263.5 355L212.1 336L187.1 396Z" fill="#211d1f" stroke="#211d1f"></path><path d="M367.2 693L420.5 600L404.2 588Z" fill="#211d1f" stroke="#211d1f"></path><path d="M404.2 588L420.5 600L447.5 520Z" fill="#241f20" stroke="#241f20"></path><path d="M226.5 301L220.1 321L263.5 355Z" fill="#282524" stroke="#282524"></path><path d="M132.7 295L85.4 372L160.7 396Z" fill="#241f20" stroke="#241f20"></path><path d="M85.4 372L127.7 428L160.7 396Z" fill="#262222" stroke="#262222"></path><path d="M160.7 396L127.7 428L154.7 487Z" fill="#131418" stroke="#131418"></path><path d="M97.7 533L149.1 582L168.1 544Z" fill="#2a2726" stroke="#2a2726"></path><path d="M263.5 627L276.5 657L283.8 625Z" fill="#262222" stroke="#262222"></path><path d="M283.8 625L367.2 693L404.2 588Z" fill="#262222" stroke="#262222"></path><path d="M192.1 655L276.5 657L263.5 627Z" fill="#1e1b1d" stroke="#1e1b1d"></path><path d="M97.7 533L168.1 544L154.7 487Z" fill="#17171a" stroke="#17171a"></path><path d="M168.1 544L149.1 582L252.5 547Z" fill="#282524" stroke="#282524"></path><path d="M487.9 482L396.5 422L411.5 477Z" fill="#241f20" stroke="#241f20"></path><path d="M294.8 268L226.5 301L263.5 355Z" fill="#282524" stroke="#282524"></path><path d="M526.9 552L487.9 482L447.5 520Z" fill="#241f20" stroke="#241f20"></path><path d="M447.5 520L487.9 482L411.5 477Z" fill="#2c2a28" stroke="#2c2a28"></path><path d="M294.8 268L276.8 371L357.2 262Z" fill="#17171a" stroke="#17171a"></path><path d="M220.1 321L132.7 295L212.1 336Z" fill="#2c2a28" stroke="#2c2a28"></path><path d="M487.9 482L460.9 376L396.5 422Z" fill="#282524" stroke="#282524"></path><path d="M367.2 693L439.5 622L420.5 600Z" fill="#131418" stroke="#131418"></path><path d="M420.5 600L457.9 610L447.5 520Z" fill="#1e1b1d" stroke="#1e1b1d"></path><path d="M149.1 582L192.1 655L263.5 627Z" fill="#1e1b1d" stroke="#1e1b1d"></path><path d="M85.4 521L97.7 533L154.7 487Z" fill="#1e1b1d" stroke="#1e1b1d"></path><path d="M149.1 582L117.7 592L192.1 655Z" fill="#0f1216" stroke="#0f1216"></path><path d="M439.5 622L457.9 610L420.5 600Z" fill="#131418" stroke="#131418"></path><path d="M357.2 262L276.8 371L398.2 359Z" fill="#211d1f" stroke="#211d1f"></path><path d="M97.7 533L117.7 592L149.1 582Z" fill="#0f1216" stroke="#0f1216"></path><path d="M127.7 428L85.4 521L154.7 487Z" fill="#17171a" stroke="#17171a"></path><path d="M97.7 533L74.4 630L117.7 592Z" fill="#2c2a28" stroke="#2c2a28"></path><path d="M271.8 749L367.2 693L276.5 657Z" fill="#262222" stroke="#262222"></path><path d="M276.5 657L367.2 693L283.8 625Z" fill="#0f1216" stroke="#0f1216"></path><path d="M439.5 622L522.9 634L457.9 610Z" fill="#2c2a28" stroke="#2c2a28"></path><path d="M386.2 269L398.2 359L459.5 287Z" fill="#1b191c" stroke="#1b191c"></path><path d="M386.2 269L357.2 262L398.2 359Z" fill="#262222" stroke="#262222"></path><path d="M528.3 389L474.9 339L460.9 376Z" fill="#262222" stroke="#262222"></path><path d="M460.9 376L474.9 339L446.5 361Z" fill="#0f1216" stroke="#0f1216"></path><path d="M459.5 287L398.2 359L446.5 361Z" fill="#262222" stroke="#262222"></path><path d="M560.3 523L527.3 455L487.9 482Z" fill="#282524" stroke="#282524"></path><path d="M487.9 482L525.9 417L460.9 376Z" fill="#1e1b1d" stroke="#1e1b1d"></path><path d="M273.8 217L266.5 250L294.8 268Z" fill="#282524" stroke="#282524"></path><path d="M294.8 268L266.5 250L226.5 301Z" fill="#1e1b1d" stroke="#1e1b1d"></path><path d="M266.5 250L212.1 260L226.5 301Z" fill="#17171a" stroke="#17171a"></path><path d="M226.5 301L132.7 295L220.1 321Z" fill="#1e1b1d" stroke="#1e1b1d"></path><path d="M527.3 455L525.9 417L487.9 482Z" fill="#1e1b1d" stroke="#1e1b1d"></path><path d="M132.7 295L160.7 396L212.1 336Z" fill="#282524" stroke="#282524"></path><path d="M127.7 428L43.4 456L85.4 521Z" fill="#1b191c" stroke="#1b191c"></path><path d="M522.9 634L526.9 552L457.9 610Z" fill="#211d1f" stroke="#211d1f"></path><path d="M457.9 610L526.9 552L447.5 520Z" fill="#211d1f" stroke="#211d1f"></path><path d="M212.1 260L132.7 295L226.5 301Z" fill="#2c2a28" stroke="#2c2a28"></path><path d="M591.3 402L525.9 417L527.3 455Z" fill="#211d1f" stroke="#211d1f"></path><path d="M591.3 402L528.3 389L525.9 417Z" fill="#241f20" stroke="#241f20"></path><path d="M525.9 417L528.3 389L460.9 376Z" fill="#1e1b1d" stroke="#1e1b1d"></path><path d="M527.3 314L459.5 287L474.9 339Z" fill="#211d1f" stroke="#211d1f"></path><path d="M474.9 339L459.5 287L446.5 361Z" fill="#2a2726" stroke="#2a2726"></path><path d="M43.4 412L43.4 456L127.7 428Z" fill="#0f1216" stroke="#0f1216"></path><path d="M85.4 521L74.4 630L97.7 533Z" fill="#262222" stroke="#262222"></path><path d="M117.7 592L143.7 687L192.1 655Z" fill="#241f20" stroke="#241f20"></path><path d="M192.1 655L262.5 743L276.5 657Z" fill="#17171a" stroke="#17171a"></path><path d="M74.4 630L143.7 687L117.7 592Z" fill="#17171a" stroke="#17171a"></path><path d="M370.2 747L404.5 716L367.2 693Z" fill="#1b191c" stroke="#1b191c"></path><path d="M367.2 693L404.5 716L439.5 622Z" fill="#17171a" stroke="#17171a"></path><path d="M85.4 372L43.4 412L127.7 428Z" fill="#241f20" stroke="#241f20"></path><path d="M38.4 332L43.4 412L85.4 372Z" fill="#282524" stroke="#282524"></path><path d="M316.8 192L273.8 217L294.8 268Z" fill="#211d1f" stroke="#211d1f"></path><path d="M266.5 250L273.8 217L212.1 260Z" fill="#1e1b1d" stroke="#1e1b1d"></path><path d="M212.1 260L106.7 217L132.7 295Z" fill="#17171a" stroke="#17171a"></path><path d="M316.8 192L294.8 268L357.2 262Z" fill="#0f1216" stroke="#0f1216"></path><path d="M316.8 192L357.2 262L397.2 188Z" fill="#211d1f" stroke="#211d1f"></path><path d="M254.5 751L262.5 743L206.1 761Z" fill="#211d1f" stroke="#211d1f"></path><path d="M561.3 570L560.3 523L526.9 552Z" fill="#1b191c" stroke="#1b191c"></path><path d="M526.9 552L560.3 523L487.9 482Z" fill="#241f20" stroke="#241f20"></path><path d="M0 518L74.4 630L85.4 521Z" fill="#0f1216" stroke="#0f1216"></path><path d="M272.8 753L271.8 749L254.5 751Z" fill="#1e1b1d" stroke="#1e1b1d"></path><path d="M262.5 743L271.8 749L276.5 657Z" fill="#2a2726" stroke="#2a2726"></path><path d="M482.9 741L522.9 634L439.5 622Z" fill="#17171a" stroke="#17171a"></path><path d="M254.5 751L271.8 749L262.5 743Z" fill="#131418" stroke="#131418"></path><path d="M271.8 749L370.2 747L367.2 693Z" fill="#0f1216" stroke="#0f1216"></path><path d="M206.1 761L262.5 743L192.1 655Z" fill="#131418" stroke="#131418"></path><path d="M272.8 753L370.2 747L271.8 749Z" fill="#2a2726" stroke="#2a2726"></path><path d="M404.5 716L482.9 741L439.5 622Z" fill="#131418" stroke="#131418"></path><path d="M522.9 634L561.3 570L526.9 552Z" fill="#2c2a28" stroke="#2c2a28"></path><path d="M528.3 389L527.3 314L474.9 339Z" fill="#1e1b1d" stroke="#1e1b1d"></path><path d="M604.6 374L527.3 314L528.3 389Z" fill="#2a2726" stroke="#2a2726"></path><path d="M397.2 188L357.2 262L386.2 269Z" fill="#211d1f" stroke="#211d1f"></path><path d="M273.8 217L262.5 192L212.1 260Z" fill="#2c2a28" stroke="#2c2a28"></path><path d="M433.5 215L386.2 269L459.5 287Z" fill="#1b191c" stroke="#1b191c"></path><path d="M316.8 192L262.5 192L273.8 217Z" fill="#2a2726" stroke="#2a2726"></path><path d="M161.1 753L206.1 761L143.7 687Z" fill="#0f1216" stroke="#0f1216"></path><path d="M143.7 687L206.1 761L192.1 655Z" fill="#2a2726" stroke="#2a2726"></path><path d="M254.5 751L268.5 828L272.8 753Z" fill="#1b191c" stroke="#1b191c"></path><path d="M272.8 753L359.2 772L370.2 747Z" fill="#131418" stroke="#131418"></path><path d="M450.5 209L433.5 215L459.5 287Z" fill="#241f20" stroke="#241f20"></path><path d="M34.4 232L38.4 332L132.7 295Z" fill="#262222" stroke="#262222"></path><path d="M132.7 295L38.4 332L85.4 372Z" fill="#0f1216" stroke="#0f1216"></path><path d="M0 436L0 507L43.4 456Z" fill="#262222" stroke="#262222"></path><path d="M0 436L43.4 456L43.4 412Z" fill="#282524" stroke="#282524"></path><path d="M43.4 456L0 507L85.4 521Z" fill="#1e1b1d" stroke="#1e1b1d"></path><path d="M268.5 828L359.2 772L272.8 753Z" fill="#0f1216" stroke="#0f1216"></path><path d="M477.9 745L482.9 741L404.5 716Z" fill="#0f1216" stroke="#0f1216"></path><path d="M0 507L0 518L85.4 521Z" fill="#241f20" stroke="#241f20"></path><path d="M0 373L0 436L43.4 412Z" fill="#1e1b1d" stroke="#1e1b1d"></path><path d="M615.6 543L597.6 514L560.3 523Z" fill="#282524" stroke="#282524"></path><path d="M560.3 523L597.6 514L527.3 455Z" fill="#1b191c" stroke="#1b191c"></path><path d="M615.6 543L560.3 523L561.3 570Z" fill="#211d1f" stroke="#211d1f"></path><path d="M623.6 434L591.3 402L527.3 455Z" fill="#131418" stroke="#131418"></path><path d="M125.7 754L161.1 753L143.7 687Z" fill="#2a2726" stroke="#2a2726"></path><path d="M433.5 215L397.2 188L386.2 269Z" fill="#241f20" stroke="#241f20"></path><path d="M276.8 152L222.1 174L262.5 192Z" fill="#1b191c" stroke="#1b191c"></path><path d="M462.9 198L450.5 209L508.9 213Z" fill="#1b191c" stroke="#1b191c"></path><path d="M433.5 215L450.5 209L397.2 188Z" fill="#2c2a28" stroke="#2c2a28"></path><path d="M38.4 684L60.4 682L74.4 630Z" fill="#211d1f" stroke="#211d1f"></path><path d="M74.4 630L60.4 682L143.7 687Z" fill="#131418" stroke="#131418"></path><path d="M276.8 152L262.5 192L316.8 192Z" fill="#2a2726" stroke="#2a2726"></path><path d="M262.5 192L222.1 174L212.1 260Z" fill="#282524" stroke="#282524"></path><path d="M38.4 332L0 373L43.4 412Z" fill="#262222" stroke="#262222"></path><path d="M477.9 745L404.5 716L462.5 782Z" fill="#2c2a28" stroke="#2c2a28"></path><path d="M633.6 571L615.6 543L561.3 570Z" fill="#2a2726" stroke="#2a2726"></path><path d="M462.5 782L404.5 716L370.2 747Z" fill="#211d1f" stroke="#211d1f"></path><path d="M60.4 682L125.7 754L143.7 687Z" fill="#2c2a28" stroke="#2c2a28"></path><path d="M197.1 874L268.5 828L206.1 761Z" fill="#1b191c" stroke="#1b191c"></path><path d="M222.1 174L106.7 217L212.1 260Z" fill="#241f20" stroke="#241f20"></path><path d="M38.4 332L0 266L0 373Z" fill="#1b191c" stroke="#1b191c"></path><path d="M582.6 640L561.3 570L522.9 634Z" fill="#2a2726" stroke="#2a2726"></path><path d="M623.6 434L604.6 374L591.3 402Z" fill="#1b191c" stroke="#1b191c"></path><path d="M623.6 434L527.3 455L597.6 514Z" fill="#2c2a28" stroke="#2c2a28"></path><path d="M591.3 402L604.6 374L528.3 389Z" fill="#1e1b1d" stroke="#1e1b1d"></path><path d="M508.9 213L450.5 209L459.5 287Z" fill="#2c2a28" stroke="#2c2a28"></path><path d="M450.5 209L462.9 198L397.2 188Z" fill="#282524" stroke="#282524"></path><path d="M508.9 213L459.5 287L527.3 314Z" fill="#2c2a28" stroke="#2c2a28"></path><path d="M573.3 684L582.6 640L522.9 634Z" fill="#131418" stroke="#131418"></path><path d="M346.2 120L316.8 192L397.2 188Z" fill="#282524" stroke="#282524"></path><path d="M284.5 125L276.8 152L346.2 120Z" fill="#2a2726" stroke="#2a2726"></path><path d="M103.7 142L91.7 151L106.7 217Z" fill="#1e1b1d" stroke="#1e1b1d"></path><path d="M675 445L623.6 434L597.6 514Z" fill="#1e1b1d" stroke="#1e1b1d"></path><path d="M0 631L38.4 684L74.4 630Z" fill="#1b191c" stroke="#1b191c"></path><path d="M60.4 682L110.7 761L125.7 754Z" fill="#1b191c" stroke="#1b191c"></path><path d="M0 518L0 631L74.4 630Z" fill="#2a2726" stroke="#2a2726"></path><path d="M57.4 770L110.7 761L60.4 682Z" fill="#1e1b1d" stroke="#1e1b1d"></path><path d="M125.7 754L131.7 801L161.1 753Z" fill="#2c2a28" stroke="#2c2a28"></path><path d="M206.1 761L268.5 828L254.5 751Z" fill="#262222" stroke="#262222"></path><path d="M532.3 202L508.9 213L580.3 235Z" fill="#241f20" stroke="#241f20"></path><path d="M554.3 723L573.3 684L522.9 634Z" fill="#262222" stroke="#262222"></path><path d="M582.6 640L633.6 571L561.3 570Z" fill="#1e1b1d" stroke="#1e1b1d"></path><path d="M554.3 723L522.9 634L482.9 741Z" fill="#262222" stroke="#262222"></path><path d="M359.2 772L462.5 782L370.2 747Z" fill="#282524" stroke="#282524"></path><path d="M477.9 745L539.3 748L482.9 741Z" fill="#1e1b1d" stroke="#1e1b1d"></path><path d="M384.2 837L462.5 782L359.2 772Z" fill="#211d1f" stroke="#211d1f"></path><path d="M675 565L633.6 571L675 636Z" fill="#2a2726" stroke="#2a2726"></path><path d="M675 535L675 445L597.6 514Z" fill="#241f20" stroke="#241f20"></path><path d="M131.7 801L206.1 761L161.1 753Z" fill="#2a2726" stroke="#2a2726"></path><path d="M406.5 99L404.5 143L529.9 98Z" fill="#131418" stroke="#131418"></path><path d="M462.9 198L404.5 143L397.2 188Z" fill="#2c2a28" stroke="#2c2a28"></path><path d="M539.3 748L554.3 723L482.9 741Z" fill="#282524" stroke="#282524"></path><path d="M675 636L633.6 571L582.6 640Z" fill="#1b191c" stroke="#1b191c"></path><path d="M346.2 120L276.8 152L316.8 192Z" fill="#211d1f" stroke="#211d1f"></path><path d="M276.8 152L221.1 114L222.1 174Z" fill="#211d1f" stroke="#211d1f"></path><path d="M0 631L0 675L38.4 684Z" fill="#211d1f" stroke="#211d1f"></path><path d="M38.4 684L57.4 770L60.4 682Z" fill="#0f1216" stroke="#0f1216"></path><path d="M21.4 189L34.4 232L106.7 217Z" fill="#1b191c" stroke="#1b191c"></path><path d="M106.7 217L34.4 232L132.7 295Z" fill="#2c2a28" stroke="#2c2a28"></path><path d="M462.5 782L539.3 748L477.9 745Z" fill="#2a2726" stroke="#2a2726"></path><path d="M81.4 805L131.7 801L110.7 761Z" fill="#2c2a28" stroke="#2c2a28"></path><path d="M110.7 761L131.7 801L125.7 754Z" fill="#211d1f" stroke="#211d1f"></path><path d="M404.5 143L346.2 120L397.2 188Z" fill="#131418" stroke="#131418"></path><path d="M580.3 235L508.9 213L527.3 314Z" fill="#1b191c" stroke="#1b191c"></path><path d="M508.9 213L532.3 202L462.9 198Z" fill="#211d1f" stroke="#211d1f"></path><path d="M0 675L0 689L38.4 684Z" fill="#0f1216" stroke="#0f1216"></path><path d="M34.4 232L0 266L38.4 332Z" fill="#262222" stroke="#262222"></path><path d="M34.4 232L0 264L0 266Z" fill="#2a2726" stroke="#2a2726"></path><path d="M268.5 828L384.2 837L359.2 772Z" fill="#282524" stroke="#282524"></path><path d="M462.5 782L465.9 817L539.3 748Z" fill="#262222" stroke="#262222"></path><path d="M253.5 64L221.1 114L284.5 125Z" fill="#2a2726" stroke="#2a2726"></path><path d="M284.5 125L221.1 114L276.8 152Z" fill="#241f20" stroke="#241f20"></path><path d="M632.6 292L580.3 235L527.3 314Z" fill="#1e1b1d" stroke="#1e1b1d"></path><path d="M632.6 292L527.3 314L604.6 374Z" fill="#211d1f" stroke="#211d1f"></path><path d="M0 765L57.4 770L38.4 684Z" fill="#131418" stroke="#131418"></path><path d="M384.2 837L465.9 817L462.5 782Z" fill="#17171a" stroke="#17171a"></path><path d="M620.6 806L575.6 736L539.3 748Z" fill="#282524" stroke="#282524"></path><path d="M539.3 748L575.6 736L554.3 723Z" fill="#282524" stroke="#282524"></path><path d="M554.3 723L575.6 736L573.3 684Z" fill="#241f20" stroke="#241f20"></path><path d="M675 535L597.6 514L615.6 543Z" fill="#0f1216" stroke="#0f1216"></path><path d="M623.6 434L675 356L604.6 374Z" fill="#1b191c" stroke="#1b191c"></path><path d="M675 445L675 438L623.6 434Z" fill="#17171a" stroke="#17171a"></path><path d="M675 565L675 535L633.6 571Z" fill="#2c2a28" stroke="#2c2a28"></path><path d="M633.6 571L675 535L615.6 543Z" fill="#1b191c" stroke="#1b191c"></path><path d="M675 356L632.6 292L604.6 374Z" fill="#211d1f" stroke="#211d1f"></path><path d="M649.6 237L574.6 211L580.3 235Z" fill="#241f20" stroke="#241f20"></path><path d="M580.3 235L574.6 211L532.3 202Z" fill="#262222" stroke="#262222"></path><path d="M529.9 98L404.5 143L462.9 198Z" fill="#2c2a28" stroke="#2c2a28"></path><path d="M675 636L582.6 640L573.3 684Z" fill="#282524" stroke="#282524"></path><path d="M103.7 142L106.7 217L222.1 174Z" fill="#131418" stroke="#131418"></path><path d="M34.4 232L0 199L0 264Z" fill="#0f1216" stroke="#0f1216"></path><path d="M221.1 114L103.7 142L222.1 174Z" fill="#262222" stroke="#262222"></path><path d="M57.4 770L81.4 805L110.7 761Z" fill="#2c2a28" stroke="#2c2a28"></path><path d="M214.5 900L295.8 872L268.5 828Z" fill="#241f20" stroke="#241f20"></path><path d="M0 865L81.4 805L57.4 770Z" fill="#17171a" stroke="#17171a"></path><path d="M197.1 874L206.1 761L131.7 801Z" fill="#2c2a28" stroke="#2c2a28"></path><path d="M268.5 828L295.8 872L384.2 837Z" fill="#2a2726" stroke="#2a2726"></path><path d="M384.2 837L446.5 865L465.9 817Z" fill="#1b191c" stroke="#1b191c"></path><path d="M529.9 98L462.9 198L532.3 202Z" fill="#1b191c" stroke="#1b191c"></path><path d="M404.5 143L406.5 99L346.2 120Z" fill="#131418" stroke="#131418"></path><path d="M346.2 120L287.8 81L284.5 125Z" fill="#1e1b1d" stroke="#1e1b1d"></path><path d="M675 438L675 356L623.6 434Z" fill="#262222" stroke="#262222"></path><path d="M404.2 44L287.8 81L346.2 120Z" fill="#2a2726" stroke="#2a2726"></path><path d="M221.1 114L92.4 109L103.7 142Z" fill="#211d1f" stroke="#211d1f"></path><path d="M0 137L21.4 189L91.7 151Z" fill="#1b191c" stroke="#1b191c"></path><path d="M91.7 151L21.4 189L106.7 217Z" fill="#282524" stroke="#282524"></path><path d="M188.1 900L197.1 874L129.7 900Z" fill="#241f20" stroke="#241f20"></path><path d="M0 137L0 199L21.4 189Z" fill="#262222" stroke="#262222"></path><path d="M21.4 189L0 199L34.4 232Z" fill="#1b191c" stroke="#1b191c"></path><path d="M647.6 748L675 636L573.3 684Z" fill="#211d1f" stroke="#211d1f"></path><path d="M0 689L0 765L38.4 684Z" fill="#241f20" stroke="#241f20"></path><path d="M188.1 900L214.5 900L197.1 874Z" fill="#262222" stroke="#262222"></path><path d="M351.2 900L446.5 865L384.2 837Z" fill="#241f20" stroke="#241f20"></path><path d="M465.9 817L513.3 850L539.3 748Z" fill="#241f20" stroke="#241f20"></path><path d="M299.8 0L253.5 64L287.8 81Z" fill="#0f1216" stroke="#0f1216"></path><path d="M287.8 81L253.5 64L284.5 125Z" fill="#131418" stroke="#131418"></path><path d="M214.5 900L305.8 900L295.8 872Z" fill="#17171a" stroke="#17171a"></path><path d="M295.8 872L351.2 900L384.2 837Z" fill="#1b191c" stroke="#1b191c"></path><path d="M105.7 62L92.4 109L221.1 114Z" fill="#211d1f" stroke="#211d1f"></path><path d="M103.7 142L92.4 109L91.7 151Z" fill="#241f20" stroke="#241f20"></path><path d="M305.8 900L351.2 900L295.8 872Z" fill="#1e1b1d" stroke="#1e1b1d"></path><path d="M632.6 292L649.6 237L580.3 235Z" fill="#131418" stroke="#131418"></path><path d="M574.6 211L590.6 155L532.3 202Z" fill="#0f1216" stroke="#0f1216"></path><path d="M675 278L649.6 237L632.6 292Z" fill="#1e1b1d" stroke="#1e1b1d"></path><path d="M675 356L675 278L632.6 292Z" fill="#0f1216" stroke="#0f1216"></path><path d="M197.1 874L131.7 801L129.7 900Z" fill="#1b191c" stroke="#1b191c"></path><path d="M197.1 874L214.5 900L268.5 828Z" fill="#1e1b1d" stroke="#1e1b1d"></path><path d="M452.5 900L513.3 850L446.5 865Z" fill="#211d1f" stroke="#211d1f"></path><path d="M446.5 865L513.3 850L465.9 817Z" fill="#282524" stroke="#282524"></path><path d="M575.6 736L647.6 748L573.3 684Z" fill="#17171a" stroke="#17171a"></path><path d="M129.7 900L131.7 801L81.4 805Z" fill="#211d1f" stroke="#211d1f"></path><path d="M649.6 237L590.6 155L574.6 211Z" fill="#211d1f" stroke="#211d1f"></path><path d="M675 278L675 251L649.6 237Z" fill="#1b191c" stroke="#1b191c"></path><path d="M649.6 237L675 162L590.6 155Z" fill="#131418" stroke="#131418"></path><path d="M620.6 806L647.6 748L575.6 736Z" fill="#131418" stroke="#131418"></path><path d="M253.5 64L205.1 45L221.1 114Z" fill="#241f20" stroke="#241f20"></path><path d="M259.5 0L205.1 45L253.5 64Z" fill="#1b191c" stroke="#1b191c"></path><path d="M564.3 120L529.9 98L532.3 202Z" fill="#131418" stroke="#131418"></path><path d="M406.5 99L404.2 44L346.2 120Z" fill="#241f20" stroke="#241f20"></path><path d="M590.6 155L564.3 120L532.3 202Z" fill="#17171a" stroke="#17171a"></path><path d="M650.6 84L564.3 120L590.6 155Z" fill="#262222" stroke="#262222"></path><path d="M509.9 52L404.2 44L406.5 99Z" fill="#2a2726" stroke="#2a2726"></path><path d="M351.2 900L452.5 900L446.5 865Z" fill="#211d1f" stroke="#211d1f"></path><path d="M675 780L675 739L647.6 748Z" fill="#282524" stroke="#282524"></path><path d="M47.4 900L129.7 900L81.4 805Z" fill="#1b191c" stroke="#1b191c"></path><path d="M92.4 109L0 137L91.7 151Z" fill="#0f1216" stroke="#0f1216"></path><path d="M46.4 56L0 137L92.4 109Z" fill="#17171a" stroke="#17171a"></path><path d="M620.6 806L539.3 748L513.3 850Z" fill="#211d1f" stroke="#211d1f"></path><path d="M647.6 748L675 739L675 636Z" fill="#2c2a28" stroke="#2c2a28"></path><path d="M205.1 45L105.7 62L221.1 114Z" fill="#0f1216" stroke="#0f1216"></path><path d="M599.6 900L620.6 806L513.3 850Z" fill="#1b191c" stroke="#1b191c"></path><path d="M452.5 900L515.9 900L513.3 850Z" fill="#0f1216" stroke="#0f1216"></path><path d="M515.9 900L518.3 900L513.3 850Z" fill="#262222" stroke="#262222"></path><path d="M515.3 20L509.9 52L552.3 0Z" fill="#211d1f" stroke="#211d1f"></path><path d="M529.9 98L509.9 52L406.5 99Z" fill="#1b191c" stroke="#1b191c"></path><path d="M509.9 52L529.9 98L552.3 0Z" fill="#2a2726" stroke="#2a2726"></path><path d="M378.2 0L287.8 81L404.2 44Z" fill="#241f20" stroke="#241f20"></path><path d="M378.2 0L299.8 0L287.8 81Z" fill="#282524" stroke="#282524"></path><path d="M205.1 45L188.1 0L105.7 62Z" fill="#241f20" stroke="#241f20"></path><path d="M299.8 0L259.5 0L253.5 64Z" fill="#2c2a28" stroke="#2c2a28"></path><path d="M675 806L675 780L620.6 806Z" fill="#1e1b1d" stroke="#1e1b1d"></path><path d="M620.6 806L675 780L647.6 748Z" fill="#262222" stroke="#262222"></path><path d="M405.5 0L378.2 0L404.2 44Z" fill="#2a2726" stroke="#2a2726"></path><path d="M0 765L0 865L57.4 770Z" fill="#17171a" stroke="#17171a"></path><path d="M0 865L47.4 900L81.4 805Z" fill="#17171a" stroke="#17171a"></path><path d="M515.3 20L405.5 0L404.2 44Z" fill="#211d1f" stroke="#211d1f"></path><path d="M259.5 0L188.1 0L205.1 45Z" fill="#262222" stroke="#262222"></path><path d="M105.7 62L46.4 56L92.4 109Z" fill="#1b191c" stroke="#1b191c"></path><path d="M82.7 0L46.4 56L105.7 62Z" fill="#1e1b1d" stroke="#1e1b1d"></path><path d="M675 251L675 162L649.6 237Z" fill="#17171a" stroke="#17171a"></path><path d="M675 900L675 806L620.6 806Z" fill="#1b191c" stroke="#1b191c"></path><path d="M552.3 0L529.9 98L564.3 120Z" fill="#262222" stroke="#262222"></path><path d="M509.9 52L515.3 20L404.2 44Z" fill="#211d1f" stroke="#211d1f"></path><path d="M0 865L0 900L47.4 900Z" fill="#262222" stroke="#262222"></path><path d="M518.3 900L599.6 900L513.3 850Z" fill="#131418" stroke="#131418"></path><path d="M188.1 0L84.4 0L105.7 62Z" fill="#241f20" stroke="#241f20"></path><path d="M84.4 0L82.7 0L105.7 62Z" fill="#2a2726" stroke="#2a2726"></path><path d="M675 162L650.6 84L590.6 155Z" fill="#241f20" stroke="#241f20"></path><path d="M552.3 0L524.9 0L515.3 20Z" fill="#17171a" stroke="#17171a"></path><path d="M515.3 20L524.9 0L405.5 0Z" fill="#282524" stroke="#282524"></path><path d="M0 0L0 40L46.4 56Z" fill="#17171a" stroke="#17171a"></path><path d="M46.4 56L0 40L0 137Z" fill="#282524" stroke="#282524"></path><path d="M675 162L675 90L650.6 84Z" fill="#17171a" stroke="#17171a"></path><path d="M608.6 0L552.3 0L564.3 120Z" fill="#262222" stroke="#262222"></path><path d="M608.6 0L564.3 120L650.6 84Z" fill="#282524" stroke="#282524"></path><path d="M82.7 0L0 0L46.4 56Z" fill="#2a2726" stroke="#2a2726"></path><path d="M599.6 900L675 900L620.6 806Z" fill="#1b191c" stroke="#1b191c"></path><path d="M675 20L608.6 0L650.6 84Z" fill="#282524" stroke="#282524"></path><path d="M675 90L675 20L650.6 84Z" fill="#1b191c" stroke="#1b191c"></path><path d="M675 20L675 0L608.6 0Z" fill="#262222" stroke="#262222"></path></g></svg>